<svg width="56" height="14" viewBox="0 0 56 14" fill="none" xmlns="http://www.w3.org/2000/svg">
<path d="M3.268 3.492C3.124 3.492 2.924 3.484 2.668 3.468C2.42 3.444 2.176 3.412 1.936 3.372C1.696 3.332 1.512 3.276 1.384 3.204C1.216 3.1 1.064 2.976 0.928 2.832C0.784 2.688 0.712 2.52 0.712 2.328C0.712 2.096 0.808 1.892 1 1.716C1.192 1.532 1.428 1.38 1.708 1.26C1.996 1.14 2.288 1.048 2.584 0.983999C2.88 0.911999 3.132 0.872 3.34 0.864C3.436 0.856 3.528 0.852 3.616 0.852C3.712 0.852 3.808 0.852 3.904 0.852C4.784 0.852 5.66 0.944 6.532 1.128C7.404 1.312 8.264 1.504 9.112 1.704C9.64 1.832 10.184 1.952 10.744 2.064C11.304 2.176 11.86 2.232 12.412 2.232C12.5 2.232 12.612 2.228 12.748 2.22C12.884 2.204 13.004 2.172 13.108 2.124C13.22 2.076 13.276 2 13.276 1.896C13.276 1.816 13.248 1.76 13.192 1.728C13.144 1.688 13.092 1.656 13.036 1.632C12.98 1.6 12.952 1.556 12.952 1.5C12.952 1.452 12.972 1.408 13.012 1.368C13.06 1.328 13.112 1.308 13.168 1.308C13.248 1.308 13.332 1.344 13.42 1.416C13.516 1.488 13.596 1.572 13.66 1.668C13.732 1.764 13.768 1.852 13.768 1.932C13.768 2.116 13.688 2.256 13.528 2.352C13.368 2.44 13.18 2.5 12.964 2.532C12.756 2.556 12.576 2.568 12.424 2.568C11.872 2.568 11.316 2.512 10.756 2.4C10.204 2.288 9.66 2.168 9.124 2.04C8.284 1.84 7.428 1.652 6.556 1.476C5.692 1.292 4.82 1.2 3.94 1.2C3.844 1.2 3.748 1.2 3.652 1.2C3.564 1.2 3.472 1.204 3.376 1.212C3.152 1.228 2.892 1.272 2.596 1.344C2.3 1.408 2.02 1.5 1.756 1.62C1.5 1.74 1.312 1.892 1.192 2.076C1.136 2.156 1.108 2.232 1.108 2.304C1.108 2.432 1.164 2.548 1.276 2.652C1.396 2.756 1.512 2.84 1.624 2.904C1.728 2.968 1.884 3.02 2.092 3.06C2.308 3.092 2.524 3.116 2.74 3.132C2.964 3.14 3.136 3.144 3.256 3.144C3.584 3.144 3.908 3.124 4.228 3.084C4.548 3.044 4.86 2.984 5.164 2.904C5.212 2.888 5.292 2.86 5.404 2.82C5.516 2.78 5.636 2.74 5.764 2.7C5.9 2.652 6.012 2.612 6.1 2.58C6.196 2.54 6.248 2.52 6.256 2.52C6.32 2.52 6.372 2.544 6.412 2.592C6.452 2.632 6.472 2.676 6.472 2.724C6.472 2.78 6.432 2.828 6.352 2.868C6.2 2.948 6.028 3.02 5.836 3.084C5.644 3.14 5.456 3.192 5.272 3.24C4.624 3.408 3.956 3.492 3.268 3.492ZM4.972 9.48C4.844 9.48 4.78 9.42 4.78 9.3C4.78 9.212 4.8 9.108 4.84 8.988C4.888 8.868 4.928 8.768 4.96 8.688C5.152 8.216 5.376 7.748 5.632 7.284C5.896 6.82 6.152 6.36 6.4 5.904C6.472 5.768 6.58 5.576 6.724 5.328C6.868 5.072 7.012 4.8 7.156 4.512C7.308 4.216 7.436 3.944 7.54 3.696C7.652 3.448 7.708 3.26 7.708 3.132C7.708 3.092 7.7 3.06 7.684 3.036C7.668 3.004 7.66 2.972 7.66 2.94C7.66 2.9 7.68 2.864 7.72 2.832C7.76 2.8 7.808 2.784 7.864 2.784C7.968 2.784 8.032 2.824 8.056 2.904C8.08 2.984 8.092 3.06 8.092 3.132C8.092 3.292 8.04 3.504 7.936 3.768C7.832 4.024 7.704 4.3 7.552 4.596C7.408 4.884 7.264 5.16 7.12 5.424C6.976 5.68 6.86 5.888 6.772 6.048C6.524 6.496 6.272 6.948 6.016 7.404C5.76 7.86 5.536 8.324 5.344 8.796C5.312 8.884 5.28 8.972 5.248 9.06C5.224 9.148 5.2 9.236 5.176 9.324C5.152 9.428 5.084 9.48 4.972 9.48ZM10.8543 9.084C10.6543 9.084 10.4783 9.028 10.3263 8.916C10.1823 8.804 10.1103 8.636 10.1103 8.412C10.1103 8.1 10.1943 7.772 10.3623 7.428C10.5303 7.084 10.7343 6.752 10.9743 6.432C11.2143 6.104 11.4383 5.816 11.6463 5.568C11.7743 5.432 11.8383 5.316 11.8383 5.22C11.8383 5.148 11.8023 5.108 11.7303 5.1C11.7063 5.092 11.6743 5.088 11.6343 5.088C11.4583 5.088 11.2823 5.152 11.1063 5.28C10.9303 5.408 10.7863 5.516 10.6743 5.604C10.3063 5.892 9.95034 6.228 9.60634 6.612C9.26234 6.996 8.97834 7.348 8.75434 7.668C8.67434 7.788 8.60634 7.936 8.55034 8.112C8.49434 8.28 8.44234 8.44 8.39434 8.592C8.35434 8.744 8.30634 8.852 8.25034 8.916C8.17034 9.012 8.08234 9.06 7.98634 9.06C7.91434 9.06 7.85434 9.036 7.80634 8.988C7.75834 8.932 7.73434 8.864 7.73434 8.784C7.73434 8.736 7.73834 8.7 7.74634 8.676C7.84234 8.3 7.96634 7.888 8.11834 7.44C8.27834 6.984 8.44634 6.536 8.62234 6.096C8.80634 5.648 8.98234 5.248 9.15034 4.896C9.27034 4.64 9.41034 4.352 9.57034 4.032C9.73834 3.704 9.92634 3.38 10.1343 3.06C10.3503 2.732 10.5863 2.44 10.8423 2.184C11.1063 1.928 11.3943 1.74 11.7063 1.62C11.8263 1.572 11.9463 1.548 12.0663 1.548C12.2263 1.548 12.3623 1.588 12.4743 1.668C12.5943 1.748 12.6543 1.88 12.6543 2.064C12.6543 2.24 12.5903 2.444 12.4623 2.676C12.3343 2.9 12.1743 3.128 11.9823 3.36C11.7903 3.592 11.5943 3.808 11.3943 4.008C11.1943 4.208 11.0183 4.372 10.8663 4.5C10.5143 4.788 10.1783 5.056 9.85834 5.304C9.54634 5.552 9.28234 5.808 9.06634 6.072C8.92234 6.472 8.82234 6.804 8.76634 7.068C8.99034 6.764 9.26234 6.456 9.58234 6.144C9.90234 5.824 10.2023 5.556 10.4823 5.34C10.6343 5.22 10.8223 5.088 11.0463 4.944C11.2703 4.8 11.4943 4.728 11.7183 4.728C11.8783 4.728 12.0063 4.768 12.1023 4.848C12.1983 4.928 12.2463 5.036 12.2463 5.172C12.2463 5.356 12.1543 5.556 11.9703 5.772C11.7863 5.988 11.5823 6.252 11.3583 6.564C11.1423 6.876 10.9543 7.192 10.7943 7.512C10.6423 7.832 10.5663 8.124 10.5663 8.388C10.5663 8.516 10.6023 8.608 10.6743 8.664C10.7463 8.72 10.8303 8.748 10.9263 8.748C11.0703 8.748 11.2023 8.7 11.3223 8.604C11.5223 8.452 11.7063 8.272 11.8743 8.064C12.0503 7.856 12.2103 7.648 12.3543 7.44C12.4983 7.232 12.6223 7.052 12.7263 6.9C12.8063 6.772 12.8983 6.708 13.0023 6.708C13.0823 6.708 13.1223 6.752 13.1223 6.84C13.1223 6.864 13.1183 6.892 13.1103 6.924C13.1023 6.956 13.0863 6.992 13.0623 7.032C12.9503 7.232 12.8023 7.452 12.6183 7.692C12.4423 7.932 12.2623 8.16 12.0783 8.376C11.8943 8.584 11.7263 8.74 11.5743 8.844C11.3663 9.004 11.1263 9.084 10.8543 9.084ZM11.8623 1.896C11.6143 1.992 11.3703 2.16 11.1303 2.4C10.8983 2.64 10.6703 2.928 10.4463 3.264C10.2303 3.6 10.0263 3.956 9.83434 4.332C9.64234 4.7 9.47034 5.064 9.31834 5.424C9.58234 5.184 9.81834 4.98 10.0263 4.812C10.2423 4.644 10.4543 4.468 10.6623 4.284C10.8463 4.124 11.0423 3.928 11.2503 3.696C11.4663 3.456 11.6623 3.208 11.8383 2.952C12.0223 2.696 12.1503 2.46 12.2223 2.244C12.2383 2.204 12.2503 2.168 12.2583 2.136C12.2663 2.096 12.2703 2.064 12.2703 2.04C12.2703 1.912 12.2063 1.848 12.0783 1.848C12.0463 1.848 12.0103 1.852 11.9703 1.86C11.9383 1.868 11.9023 1.88 11.8623 1.896ZM13.6518 9.12C13.2358 9.12 12.9438 9 12.7758 8.76C12.6158 8.512 12.5358 8.224 12.5358 7.896C12.5358 7.656 12.5958 7.372 12.7158 7.044C12.8358 6.708 12.9998 6.38 13.2078 6.06C13.4238 5.74 13.6718 5.476 13.9518 5.268C14.2318 5.052 14.5318 4.944 14.8518 4.944C15.0598 4.944 15.2238 5.004 15.3438 5.124C15.4718 5.236 15.5358 5.38 15.5358 5.556C15.5358 5.892 15.4278 6.216 15.2118 6.528C14.9958 6.84 14.7158 7.096 14.3718 7.296C14.0278 7.496 13.6598 7.596 13.2678 7.596C13.2198 7.596 13.1718 7.596 13.1238 7.596C13.0758 7.588 13.0278 7.58 12.9798 7.572C12.9558 7.676 12.9438 7.796 12.9438 7.932C12.9438 8.14 12.9918 8.332 13.0878 8.508C13.1918 8.684 13.3878 8.772 13.6758 8.772C13.9158 8.772 14.1478 8.712 14.3718 8.592C14.5958 8.472 14.7838 8.336 14.9358 8.184C15.0878 8.032 15.2158 7.896 15.3198 7.776C15.4238 7.656 15.5318 7.52 15.6438 7.368C15.7558 7.208 15.8958 7 16.0638 6.744C16.0958 6.688 16.1438 6.66 16.2078 6.66C16.3198 6.66 16.3758 6.72 16.3758 6.84C16.3758 6.88 16.3678 6.912 16.3518 6.936C16.1358 7.304 15.8958 7.656 15.6318 7.992C15.3678 8.32 15.0718 8.592 14.7438 8.808C14.4238 9.016 14.0598 9.12 13.6518 9.12ZM13.3518 7.224C13.6558 7.224 13.9398 7.144 14.2038 6.984C14.4758 6.816 14.6958 6.608 14.8638 6.36C15.0398 6.112 15.1278 5.86 15.1278 5.604C15.1278 5.516 15.1038 5.444 15.0558 5.388C15.0158 5.332 14.9438 5.304 14.8398 5.304C14.6318 5.304 14.4318 5.376 14.2398 5.52C14.0478 5.656 13.8718 5.832 13.7118 6.048C13.5598 6.256 13.4278 6.464 13.3158 6.672C13.2118 6.88 13.1358 7.056 13.0878 7.2C13.1278 7.208 13.1678 7.216 13.2078 7.224C13.2558 7.224 13.3038 7.224 13.3518 7.224ZM27.9485 10.104C27.4445 10.104 26.9365 10.04 26.4245 9.912C25.9205 9.784 25.4165 9.62 24.9125 9.42C24.4165 9.22 23.9285 9.008 23.4485 8.784C22.9765 8.56 22.5165 8.356 22.0685 8.172C21.8445 8.404 21.5885 8.632 21.3005 8.856C21.0125 9.08 20.7005 9.264 20.3645 9.408C20.0285 9.552 19.6725 9.624 19.2965 9.624C19.0165 9.624 18.7525 9.576 18.5045 9.48C18.2565 9.392 18.0565 9.256 17.9045 9.072C17.7525 8.888 17.6765 8.668 17.6765 8.412C17.6765 8.116 17.7685 7.876 17.9525 7.692C18.1285 7.5 18.3525 7.36 18.6245 7.272C18.9045 7.176 19.1925 7.128 19.4885 7.128C19.8885 7.128 20.3125 7.192 20.7605 7.32C21.2085 7.448 21.6165 7.58 21.9845 7.716C22.2165 7.436 22.4325 7.148 22.6325 6.852C22.8405 6.556 23.0325 6.256 23.2085 5.952C22.6165 5.888 22.1205 5.712 21.7205 5.424C21.3285 5.136 21.1325 4.716 21.1325 4.164C21.1325 3.764 21.2485 3.384 21.4805 3.024C21.7205 2.656 22.0445 2.372 22.4525 2.172C22.5645 2.116 22.7005 2.064 22.8605 2.016C23.0205 1.96 23.1605 1.932 23.2805 1.932C23.4085 1.932 23.4725 1.988 23.4725 2.1C23.4725 2.196 23.4165 2.256 23.3045 2.28C23.1925 2.312 23.0805 2.34 22.9685 2.364C22.8645 2.38 22.7565 2.416 22.6445 2.472C22.3005 2.632 22.0205 2.872 21.8045 3.192C21.5965 3.504 21.4925 3.832 21.4925 4.176C21.4925 4.512 21.5845 4.78 21.7685 4.98C21.9525 5.18 22.1885 5.328 22.4765 5.424C22.7725 5.512 23.0885 5.572 23.4245 5.604C23.7365 5.02 24.0565 4.436 24.3845 3.852C24.7205 3.268 25.0845 2.704 25.4765 2.16C25.5885 2 25.7285 1.824 25.8965 1.632C26.0645 1.432 26.2525 1.24 26.4605 1.056C26.6765 0.871999 26.9005 0.723999 27.1325 0.611999C27.3645 0.491999 27.6005 0.431999 27.8405 0.431999C28.2165 0.431999 28.4965 0.536 28.6805 0.744C28.8645 0.944 28.9565 1.196 28.9565 1.5C28.9565 1.836 28.8765 2.184 28.7165 2.544C28.5565 2.904 28.3525 3.248 28.1045 3.576C27.8645 3.896 27.6165 4.176 27.3605 4.416C26.8965 4.856 26.3445 5.224 25.7045 5.52C25.0645 5.816 24.3925 5.964 23.6885 5.964C23.4885 6.292 23.2805 6.616 23.0645 6.936C22.8485 7.256 22.6125 7.564 22.3565 7.86C22.7805 8.052 23.2165 8.256 23.6645 8.472C24.1125 8.688 24.5725 8.892 25.0445 9.084C25.5165 9.284 25.9965 9.444 26.4845 9.564C26.9725 9.692 27.4605 9.756 27.9485 9.756C28.1725 9.756 28.4005 9.724 28.6325 9.66C28.8725 9.604 29.0765 9.512 29.2445 9.384C29.2845 9.344 29.3325 9.324 29.3885 9.324C29.4445 9.324 29.4925 9.34 29.5325 9.372C29.5725 9.412 29.5925 9.452 29.5925 9.492C29.5925 9.532 29.5725 9.572 29.5325 9.612C29.4365 9.7 29.3045 9.78 29.1365 9.852C28.9765 9.932 28.8085 9.992 28.6325 10.032C28.4565 10.08 28.3005 10.104 28.1645 10.104H27.9485ZM23.9165 5.592C24.5245 5.552 25.0965 5.404 25.6325 5.148C26.1765 4.892 26.6565 4.572 27.0725 4.188C27.2245 4.044 27.3845 3.86 27.5525 3.636C27.7205 3.404 27.8765 3.156 28.0205 2.892C28.1725 2.628 28.2925 2.372 28.3805 2.124C28.4765 1.868 28.5245 1.644 28.5245 1.452C28.5245 1.252 28.4645 1.092 28.3445 0.972C28.2325 0.843999 28.0565 0.779999 27.8165 0.779999C27.6165 0.779999 27.4165 0.835999 27.2165 0.948C27.0165 1.06 26.8285 1.2 26.6525 1.368C26.4765 1.536 26.3165 1.708 26.1725 1.884C26.0285 2.06 25.9085 2.212 25.8125 2.34C25.4685 2.828 25.1365 3.364 24.8165 3.948C24.5045 4.524 24.2045 5.072 23.9165 5.592ZM19.3325 9.276C19.6605 9.276 19.9685 9.212 20.2565 9.084C20.5445 8.964 20.8125 8.808 21.0605 8.616C21.3165 8.424 21.5445 8.228 21.7445 8.028C21.4085 7.892 21.0405 7.764 20.6405 7.644C20.2405 7.524 19.8525 7.464 19.4765 7.464C19.2605 7.464 19.0445 7.5 18.8285 7.572C18.6125 7.636 18.4325 7.736 18.2885 7.872C18.1525 8.008 18.0845 8.188 18.0845 8.412C18.0845 8.612 18.1445 8.776 18.2645 8.904C18.3925 9.024 18.5525 9.116 18.7445 9.18C18.9365 9.244 19.1325 9.276 19.3325 9.276ZM27.8432 9.12C27.4272 9.12 27.1352 9 26.9672 8.76C26.8072 8.512 26.7272 8.224 26.7272 7.896C26.7272 7.656 26.7872 7.372 26.9072 7.044C27.0272 6.708 27.1912 6.38 27.3992 6.06C27.6152 5.74 27.8632 5.476 28.1432 5.268C28.4232 5.052 28.7232 4.944 29.0432 4.944C29.2512 4.944 29.4152 5.004 29.5352 5.124C29.6632 5.236 29.7272 5.38 29.7272 5.556C29.7272 5.892 29.6192 6.216 29.4032 6.528C29.1872 6.84 28.9072 7.096 28.5632 7.296C28.2192 7.496 27.8512 7.596 27.4592 7.596C27.4112 7.596 27.3632 7.596 27.3152 7.596C27.2672 7.588 27.2192 7.58 27.1712 7.572C27.1472 7.676 27.1352 7.796 27.1352 7.932C27.1352 8.14 27.1832 8.332 27.2792 8.508C27.3832 8.684 27.5792 8.772 27.8672 8.772C28.1072 8.772 28.3392 8.712 28.5632 8.592C28.7872 8.472 28.9752 8.336 29.1272 8.184C29.2792 8.032 29.4072 7.896 29.5112 7.776C29.6152 7.656 29.7232 7.52 29.8352 7.368C29.9472 7.208 30.0872 7 30.2552 6.744C30.2872 6.688 30.3352 6.66 30.3992 6.66C30.5112 6.66 30.5672 6.72 30.5672 6.84C30.5672 6.88 30.5592 6.912 30.5432 6.936C30.3272 7.304 30.0872 7.656 29.8232 7.992C29.5592 8.32 29.2632 8.592 28.9352 8.808C28.6152 9.016 28.2512 9.12 27.8432 9.12ZM27.5432 7.224C27.8472 7.224 28.1312 7.144 28.3952 6.984C28.6672 6.816 28.8872 6.608 29.0552 6.36C29.2312 6.112 29.3192 5.86 29.3192 5.604C29.3192 5.516 29.2952 5.444 29.2472 5.388C29.2072 5.332 29.1352 5.304 29.0312 5.304C28.8232 5.304 28.6232 5.376 28.4312 5.52C28.2392 5.656 28.0632 5.832 27.9032 6.048C27.7512 6.256 27.6192 6.464 27.5072 6.672C27.4032 6.88 27.3272 7.056 27.2792 7.2C27.3192 7.208 27.3592 7.216 27.3992 7.224C27.4472 7.224 27.4952 7.224 27.5432 7.224ZM30.4298 9.048C30.1658 9.048 29.9818 8.98 29.8778 8.844C29.7818 8.7 29.7338 8.528 29.7338 8.328C29.7338 8.136 29.7658 7.936 29.8298 7.728C29.8938 7.52 29.9618 7.328 30.0338 7.152C30.1138 6.968 30.1778 6.832 30.2258 6.744C30.3698 6.496 30.5298 6.256 30.7058 6.024C30.8898 5.792 31.0858 5.588 31.2938 5.412C31.5018 5.228 31.7138 5.088 31.9298 4.992C32.1538 4.888 32.3778 4.836 32.6018 4.836C32.9858 4.836 33.2578 4.94 33.4178 5.148C33.5778 5.348 33.6578 5.564 33.6578 5.796C33.6578 5.876 33.6458 5.96 33.6218 6.048C33.5898 6.168 33.5498 6.272 33.5018 6.36C33.4618 6.448 33.4098 6.492 33.3458 6.492C33.2898 6.492 33.2378 6.464 33.1898 6.408C33.1418 6.352 33.1258 6.296 33.1418 6.24C33.1578 6.184 33.1778 6.128 33.2018 6.072C33.2338 6.016 33.2538 5.96 33.2618 5.904C33.2698 5.864 33.2738 5.828 33.2738 5.796C33.2818 5.764 33.2858 5.732 33.2858 5.7C33.2858 5.484 33.2138 5.336 33.0698 5.256C32.9338 5.168 32.7858 5.124 32.6258 5.124C32.4418 5.124 32.2498 5.176 32.0498 5.28C31.8578 5.384 31.6898 5.504 31.5458 5.64C31.3698 5.816 31.1938 6.02 31.0178 6.252C30.8418 6.484 30.6898 6.72 30.5618 6.96C30.5458 7 30.5018 7.096 30.4298 7.248C30.3658 7.4 30.3018 7.572 30.2378 7.764C30.1818 7.948 30.1538 8.12 30.1538 8.28C30.1538 8.392 30.1778 8.488 30.2258 8.568C30.2818 8.648 30.3738 8.688 30.5018 8.688C30.6378 8.688 30.7938 8.624 30.9698 8.496C31.1538 8.368 31.3378 8.212 31.5218 8.028C31.7138 7.836 31.8858 7.652 32.0378 7.476C32.1898 7.3 32.3018 7.164 32.3738 7.068C32.4218 7.004 32.4658 6.936 32.5058 6.864C32.5538 6.784 32.6018 6.712 32.6498 6.648C32.6738 6.616 32.7218 6.6 32.7938 6.6C32.8578 6.6 32.9218 6.62 32.9858 6.66C33.0578 6.692 33.0858 6.74 33.0698 6.804C33.0378 6.86 32.9778 6.984 32.8898 7.176C32.8098 7.36 32.7338 7.564 32.6618 7.788C32.5898 8.004 32.5538 8.196 32.5538 8.364C32.5538 8.572 32.6178 8.692 32.7458 8.724C32.8338 8.74 32.9258 8.708 33.0218 8.628C33.1258 8.548 33.2178 8.456 33.2978 8.352C33.3858 8.248 33.4498 8.172 33.4898 8.124C33.6578 7.9 33.8138 7.672 33.9578 7.44C34.1098 7.2 34.2618 6.976 34.4138 6.768C34.4618 6.704 34.5178 6.672 34.5818 6.672C34.6938 6.672 34.7498 6.732 34.7498 6.852C34.7498 6.892 34.6978 6.996 34.5938 7.164C34.4898 7.324 34.3618 7.508 34.2098 7.716C34.0658 7.924 33.9298 8.112 33.8018 8.28C33.6738 8.448 33.5298 8.612 33.3698 8.772C33.2098 8.932 33.0058 9.012 32.7578 9.012C32.5258 9.012 32.3658 8.96 32.2778 8.856C32.1978 8.752 32.1578 8.636 32.1578 8.508C32.1578 8.396 32.1698 8.28 32.1938 8.16C32.2178 8.032 32.2418 7.924 32.2658 7.836L32.2178 7.8C32.1458 7.888 32.0378 8 31.8938 8.136C31.7498 8.272 31.5898 8.412 31.4138 8.556C31.2378 8.692 31.0618 8.808 30.8858 8.904C30.7178 9 30.5658 9.048 30.4298 9.048ZM35.7654 9.168C35.6134 9.168 35.4814 9.12 35.3694 9.024C35.2654 8.928 35.2134 8.776 35.2134 8.568C35.2134 8.4 35.2454 8.228 35.3094 8.052C35.3734 7.868 35.4334 7.724 35.4894 7.62C35.6174 7.364 35.7534 7.128 35.8974 6.912C36.0414 6.688 36.1494 6.528 36.2214 6.432C36.0774 6.44 35.9054 6.404 35.7054 6.324C35.5134 6.244 35.3774 6.14 35.2974 6.012C35.1934 6.164 35.0454 6.412 34.8534 6.756C34.6614 7.092 34.4174 7.448 34.1214 7.824C34.0734 7.888 34.0174 7.92 33.9534 7.92C33.8334 7.92 33.7734 7.868 33.7734 7.764C33.7734 7.724 33.7854 7.688 33.8094 7.656C33.9294 7.488 34.0774 7.272 34.2534 7.008C34.4374 6.736 34.6134 6.456 34.7814 6.168C34.9574 5.872 35.0974 5.608 35.2014 5.376C35.2334 5.304 35.2654 5.228 35.2974 5.148C35.3374 5.068 35.3734 4.992 35.4054 4.92C35.4374 4.864 35.4814 4.816 35.5374 4.776C35.5934 4.728 35.6574 4.704 35.7294 4.704C35.7934 4.704 35.8574 4.732 35.9214 4.788C35.9854 4.836 36.0174 4.892 36.0174 4.956C36.0174 5.028 35.9894 5.12 35.9334 5.232C35.8854 5.336 35.8334 5.444 35.7774 5.556C35.7214 5.668 35.6934 5.768 35.6934 5.856C35.6934 5.928 35.7534 5.976 35.8734 6C35.9934 6.024 36.0814 6.036 36.1374 6.036C36.3534 6.036 36.5334 5.992 36.6774 5.904C36.8214 5.816 36.9214 5.772 36.9774 5.772C37.0254 5.772 37.0654 5.792 37.0974 5.832C37.1374 5.864 37.1574 5.9 37.1574 5.94C37.1574 5.996 37.1334 6.044 37.0854 6.084C36.9734 6.188 36.8414 6.336 36.6894 6.528C36.5374 6.72 36.3854 6.928 36.2334 7.152C36.0814 7.376 35.9494 7.596 35.8374 7.812C35.8054 7.892 35.7574 8.004 35.6934 8.148C35.6374 8.292 35.6094 8.428 35.6094 8.556C35.6094 8.772 35.6854 8.88 35.8374 8.88C35.9014 8.88 35.9734 8.856 36.0534 8.808C36.1414 8.76 36.2254 8.704 36.3054 8.64C36.4974 8.464 36.6654 8.292 36.8094 8.124C36.9614 7.948 37.1134 7.752 37.2654 7.536C37.4174 7.32 37.5934 7.06 37.7934 6.756C37.8254 6.7 37.8814 6.672 37.9614 6.672C38.0654 6.672 38.1174 6.72 38.1174 6.816C38.1174 6.864 38.0934 6.932 38.0454 7.02C37.9334 7.22 37.7854 7.44 37.6014 7.68C37.4254 7.92 37.2414 8.148 37.0494 8.364C36.8654 8.572 36.7014 8.732 36.5574 8.844C36.3014 9.06 36.0374 9.168 35.7654 9.168ZM38.4444 9.036C38.4044 9.036 38.3604 9.024 38.3124 9C38.2644 8.976 38.2404 8.944 38.2404 8.904C38.2404 8.84 38.2524 8.784 38.2764 8.736C38.3644 8.544 38.4764 8.308 38.6124 8.028C38.7564 7.748 38.8964 7.46 39.0324 7.164C39.1764 6.86 39.2964 6.576 39.3924 6.312C39.4964 6.048 39.5484 5.836 39.5484 5.676C39.5484 5.628 39.5364 5.584 39.5124 5.544C39.4964 5.496 39.4564 5.472 39.3924 5.472C39.2964 5.472 39.2004 5.512 39.1044 5.592C39.0164 5.672 38.9364 5.764 38.8644 5.868C38.7924 5.964 38.7324 6.044 38.6844 6.108C38.5244 6.324 38.3884 6.524 38.2764 6.708C38.1644 6.884 38.0484 7.06 37.9284 7.236C37.8164 7.404 37.6764 7.592 37.5084 7.8C37.4844 7.832 37.4564 7.86 37.4244 7.884C37.4004 7.9 37.3644 7.908 37.3164 7.908C37.2684 7.908 37.2284 7.884 37.1964 7.836C37.1564 7.788 37.1484 7.744 37.1724 7.704C37.3484 7.424 37.5204 7.16 37.6884 6.912C37.8564 6.656 38.0044 6.436 38.1324 6.252C38.2604 6.068 38.3484 5.944 38.3964 5.88C38.5324 5.704 38.6724 5.536 38.8164 5.376C38.9684 5.216 39.1724 5.136 39.4284 5.136C39.6444 5.136 39.7924 5.196 39.8724 5.316C39.9604 5.436 40.0044 5.576 40.0044 5.736C40.0044 6.024 39.8844 6.396 39.6444 6.852C39.9404 6.54 40.2564 6.256 40.5924 6C40.9364 5.744 41.2564 5.532 41.5524 5.364C41.8484 5.188 42.0724 5.08 42.2244 5.04C42.2964 5.016 42.3684 4.996 42.4404 4.98C42.5204 4.964 42.5924 4.956 42.6564 4.956C42.7364 4.956 42.8004 4.976 42.8484 5.016C42.9044 5.056 42.9324 5.132 42.9324 5.244C42.9324 5.356 42.8604 5.516 42.7164 5.724C42.5724 5.924 42.3964 6.156 42.1884 6.42C41.9884 6.676 41.7964 6.936 41.6124 7.2C41.4284 7.464 41.2964 7.712 41.2164 7.944C41.1924 8 41.1764 8.056 41.1684 8.112C41.1604 8.16 41.1564 8.204 41.1564 8.244C41.1564 8.46 41.2564 8.568 41.4564 8.568C41.5844 8.568 41.7444 8.504 41.9364 8.376C42.0484 8.304 42.1564 8.224 42.2604 8.136C42.3724 8.04 42.4564 7.956 42.5124 7.884C42.6324 7.748 42.7284 7.632 42.8004 7.536C42.8804 7.44 42.9564 7.336 43.0284 7.224C43.1084 7.104 43.2084 6.956 43.3284 6.78C43.3524 6.74 43.3764 6.712 43.4004 6.696C43.4244 6.68 43.4644 6.672 43.5204 6.672C43.6084 6.672 43.6524 6.728 43.6524 6.84C43.6524 6.888 43.6164 6.972 43.5444 7.092C43.4724 7.204 43.3844 7.332 43.2804 7.476C43.1844 7.612 43.0884 7.74 42.9924 7.86C42.9044 7.972 42.8404 8.052 42.8004 8.1C42.7124 8.204 42.6004 8.312 42.4644 8.424C42.3364 8.536 42.2044 8.632 42.0684 8.712C41.9404 8.784 41.8084 8.836 41.6724 8.868C41.5364 8.9 41.4044 8.916 41.2764 8.916C41.0684 8.916 40.9164 8.856 40.8204 8.736C40.7324 8.616 40.6884 8.488 40.6884 8.352C40.6884 8.144 40.7564 7.908 40.8924 7.644C41.0364 7.372 41.2044 7.104 41.3964 6.84C41.5964 6.568 41.7804 6.324 41.9484 6.108C42.1244 5.892 42.2444 5.736 42.3084 5.64C42.3244 5.616 42.3364 5.596 42.3444 5.58C42.3524 5.556 42.3564 5.536 42.3564 5.52C42.3564 5.456 42.3084 5.424 42.2124 5.424C42.1644 5.424 42.1084 5.436 42.0444 5.46C41.7164 5.596 41.3724 5.796 41.0124 6.06C40.6604 6.324 40.3324 6.612 40.0284 6.924C39.7324 7.228 39.4964 7.516 39.3204 7.788L38.8404 8.544C38.8004 8.608 38.7644 8.676 38.7324 8.748C38.7004 8.812 38.6644 8.876 38.6244 8.94C38.5764 9.004 38.5164 9.036 38.4444 9.036ZM43.5197 9.048C43.2557 9.048 43.0717 8.98 42.9677 8.844C42.8717 8.7 42.8237 8.528 42.8237 8.328C42.8237 8.136 42.8557 7.936 42.9197 7.728C42.9837 7.52 43.0517 7.328 43.1237 7.152C43.2037 6.968 43.2677 6.832 43.3157 6.744C43.4597 6.496 43.6197 6.256 43.7957 6.024C43.9797 5.792 44.1757 5.588 44.3837 5.412C44.5917 5.228 44.8037 5.088 45.0197 4.992C45.2437 4.888 45.4677 4.836 45.6917 4.836C46.0757 4.836 46.3477 4.94 46.5077 5.148C46.6677 5.348 46.7477 5.564 46.7477 5.796C46.7477 5.876 46.7357 5.96 46.7117 6.048C46.6797 6.168 46.6397 6.272 46.5917 6.36C46.5517 6.448 46.4997 6.492 46.4357 6.492C46.3797 6.492 46.3277 6.464 46.2797 6.408C46.2317 6.352 46.2157 6.296 46.2317 6.24C46.2477 6.184 46.2677 6.128 46.2917 6.072C46.3237 6.016 46.3437 5.96 46.3517 5.904C46.3597 5.864 46.3637 5.828 46.3637 5.796C46.3717 5.764 46.3757 5.732 46.3757 5.7C46.3757 5.484 46.3037 5.336 46.1597 5.256C46.0237 5.168 45.8757 5.124 45.7157 5.124C45.5317 5.124 45.3397 5.176 45.1397 5.28C44.9477 5.384 44.7797 5.504 44.6357 5.64C44.4597 5.816 44.2837 6.02 44.1077 6.252C43.9317 6.484 43.7797 6.72 43.6517 6.96C43.6357 7 43.5917 7.096 43.5197 7.248C43.4557 7.4 43.3917 7.572 43.3277 7.764C43.2717 7.948 43.2437 8.12 43.2437 8.28C43.2437 8.392 43.2677 8.488 43.3157 8.568C43.3717 8.648 43.4637 8.688 43.5917 8.688C43.7277 8.688 43.8837 8.624 44.0597 8.496C44.2437 8.368 44.4277 8.212 44.6117 8.028C44.8037 7.836 44.9757 7.652 45.1277 7.476C45.2797 7.3 45.3917 7.164 45.4637 7.068C45.5117 7.004 45.5557 6.936 45.5957 6.864C45.6437 6.784 45.6917 6.712 45.7397 6.648C45.7637 6.616 45.8117 6.6 45.8837 6.6C45.9477 6.6 46.0117 6.62 46.0757 6.66C46.1477 6.692 46.1757 6.74 46.1597 6.804C46.1277 6.86 46.0677 6.984 45.9797 7.176C45.8997 7.36 45.8237 7.564 45.7517 7.788C45.6797 8.004 45.6437 8.196 45.6437 8.364C45.6437 8.572 45.7077 8.692 45.8357 8.724C45.9237 8.74 46.0157 8.708 46.1117 8.628C46.2157 8.548 46.3077 8.456 46.3877 8.352C46.4757 8.248 46.5397 8.172 46.5797 8.124C46.7477 7.9 46.9037 7.672 47.0477 7.44C47.1997 7.2 47.3517 6.976 47.5037 6.768C47.5517 6.704 47.6077 6.672 47.6717 6.672C47.7837 6.672 47.8397 6.732 47.8397 6.852C47.8397 6.892 47.7877 6.996 47.6837 7.164C47.5797 7.324 47.4517 7.508 47.2997 7.716C47.1557 7.924 47.0197 8.112 46.8917 8.28C46.7637 8.448 46.6197 8.612 46.4597 8.772C46.2997 8.932 46.0957 9.012 45.8477 9.012C45.6157 9.012 45.4557 8.96 45.3677 8.856C45.2877 8.752 45.2477 8.636 45.2477 8.508C45.2477 8.396 45.2597 8.28 45.2837 8.16C45.3077 8.032 45.3317 7.924 45.3557 7.836L45.3077 7.8C45.2357 7.888 45.1277 8 44.9837 8.136C44.8397 8.272 44.6797 8.412 44.5037 8.556C44.3277 8.692 44.1517 8.808 43.9757 8.904C43.8077 9 43.6557 9.048 43.5197 9.048ZM48.8553 9.168C48.7033 9.168 48.5713 9.12 48.4593 9.024C48.3553 8.928 48.3033 8.776 48.3033 8.568C48.3033 8.4 48.3353 8.228 48.3993 8.052C48.4633 7.868 48.5233 7.724 48.5793 7.62C48.7073 7.364 48.8433 7.128 48.9873 6.912C49.1313 6.688 49.2393 6.528 49.3113 6.432C49.1673 6.44 48.9953 6.404 48.7952 6.324C48.6033 6.244 48.4673 6.14 48.3873 6.012C48.2833 6.164 48.1353 6.412 47.9433 6.756C47.7513 7.092 47.5073 7.448 47.2113 7.824C47.1633 7.888 47.1073 7.92 47.0433 7.92C46.9232 7.92 46.8632 7.868 46.8632 7.764C46.8632 7.724 46.8752 7.688 46.8992 7.656C47.0192 7.488 47.1673 7.272 47.3433 7.008C47.5273 6.736 47.7033 6.456 47.8713 6.168C48.0473 5.872 48.1873 5.608 48.2913 5.376C48.3233 5.304 48.3553 5.228 48.3873 5.148C48.4273 5.068 48.4633 4.992 48.4953 4.92C48.5273 4.864 48.5713 4.816 48.6273 4.776C48.6833 4.728 48.7473 4.704 48.8193 4.704C48.8833 4.704 48.9473 4.732 49.0113 4.788C49.0753 4.836 49.1073 4.892 49.1073 4.956C49.1073 5.028 49.0793 5.12 49.0233 5.232C48.9753 5.336 48.9233 5.444 48.8673 5.556C48.8113 5.668 48.7833 5.768 48.7833 5.856C48.7833 5.928 48.8433 5.976 48.9633 6C49.0833 6.024 49.1713 6.036 49.2273 6.036C49.4433 6.036 49.6233 5.992 49.7673 5.904C49.9113 5.816 50.0113 5.772 50.0673 5.772C50.1153 5.772 50.1553 5.792 50.1873 5.832C50.2273 5.864 50.2473 5.9 50.2473 5.94C50.2473 5.996 50.2233 6.044 50.1753 6.084C50.0633 6.188 49.9313 6.336 49.7793 6.528C49.6273 6.72 49.4753 6.928 49.3233 7.152C49.1713 7.376 49.0393 7.596 48.9273 7.812C48.8953 7.892 48.8473 8.004 48.7833 8.148C48.7273 8.292 48.6993 8.428 48.6993 8.556C48.6993 8.772 48.7753 8.88 48.9273 8.88C48.9913 8.88 49.0633 8.856 49.1433 8.808C49.2313 8.76 49.3153 8.704 49.3953 8.64C49.5873 8.464 49.7553 8.292 49.8993 8.124C50.0513 7.948 50.2033 7.752 50.3553 7.536C50.5073 7.32 50.6833 7.06 50.8833 6.756C50.9153 6.7 50.9713 6.672 51.0513 6.672C51.1553 6.672 51.2073 6.72 51.2073 6.816C51.2073 6.864 51.1833 6.932 51.1353 7.02C51.0233 7.22 50.8753 7.44 50.6913 7.68C50.5153 7.92 50.3313 8.148 50.1393 8.364C49.9553 8.572 49.7913 8.732 49.6473 8.844C49.3913 9.06 49.1273 9.168 48.8553 9.168ZM49.0862 13.476C48.8142 13.476 48.6022 13.404 48.4502 13.26C48.2902 13.124 48.2102 12.948 48.2102 12.732C48.2102 12.54 48.2942 12.328 48.4622 12.096C48.6302 11.864 48.8942 11.608 49.2542 11.328C49.3742 11.232 49.5702 11.096 49.8422 10.92C50.1062 10.752 50.4062 10.564 50.7423 10.356C51.0863 10.148 51.4223 9.944 51.7503 9.744C52.0863 9.544 52.3863 9.364 52.6503 9.204C52.9143 9.052 53.1023 8.94 53.2143 8.868C53.2863 8.676 53.3383 8.468 53.3703 8.244C53.4023 8.012 53.4183 7.804 53.4183 7.62C53.4263 7.428 53.4263 7.288 53.4183 7.2C53.3223 7.424 53.1743 7.668 52.9743 7.932C52.7823 8.188 52.5583 8.444 52.3023 8.7C52.1503 8.852 51.9743 8.976 51.7743 9.072C51.5823 9.176 51.3943 9.228 51.2103 9.228C51.0343 9.228 50.8863 9.168 50.7663 9.048C50.6543 8.928 50.5983 8.728 50.5983 8.448C50.5983 8.264 50.6183 8.08 50.6583 7.896C50.6983 7.712 50.7423 7.552 50.7903 7.416C50.8463 7.28 50.8863 7.196 50.9103 7.164C50.8703 7.108 50.8503 7.048 50.8503 6.984C50.8503 6.84 50.9023 6.672 51.0063 6.48C51.1183 6.288 51.2343 6.112 51.3543 5.952C51.4823 5.792 51.5623 5.684 51.5943 5.628C51.6103 5.596 51.6423 5.572 51.6903 5.556C51.7463 5.532 51.7943 5.52 51.8343 5.52C51.8903 5.52 51.9383 5.536 51.9783 5.568C52.0263 5.6 52.0503 5.64 52.0503 5.688C52.0503 5.704 52.0423 5.728 52.0263 5.76C51.7543 6.224 51.5103 6.692 51.2943 7.164C51.0863 7.628 50.9823 8.056 50.9823 8.448C50.9823 8.6 51.0103 8.708 51.0663 8.772C51.1223 8.828 51.1903 8.856 51.2703 8.856C51.4063 8.856 51.5543 8.804 51.7143 8.7C51.8743 8.596 51.9983 8.496 52.0863 8.4C52.3823 8.096 52.6423 7.764 52.8663 7.404C53.0903 7.044 53.2503 6.764 53.3463 6.564C53.3703 6.5 53.4103 6.428 53.4663 6.348C53.5303 6.26 53.6103 6.216 53.7063 6.216C53.7943 6.216 53.8463 6.256 53.8623 6.336C53.8863 6.408 53.8983 6.524 53.8983 6.684C53.8983 7.052 53.8823 7.388 53.8503 7.692C53.8263 7.996 53.7943 8.252 53.7543 8.46C54.0263 8.236 54.2743 7.968 54.4983 7.656C54.7303 7.336 54.9383 7.036 55.1223 6.756C55.1623 6.692 55.2143 6.66 55.2783 6.66C55.3183 6.66 55.3543 6.676 55.3863 6.708C55.4263 6.74 55.4463 6.78 55.4463 6.828C55.4463 6.86 55.4343 6.9 55.4103 6.948C55.1623 7.348 54.8983 7.732 54.6183 8.1C54.3383 8.46 53.9863 8.78 53.5623 9.06C53.3383 9.7 53.0303 10.304 52.6383 10.872C52.2543 11.448 51.8263 11.944 51.3543 12.36C50.8903 12.784 50.4223 13.092 49.9502 13.284C49.6462 13.412 49.3582 13.476 49.0862 13.476ZM49.0862 13.176C49.1822 13.176 49.2862 13.16 49.3982 13.128C49.5102 13.096 49.6262 13.056 49.7462 13.008C50.2182 12.8 50.6503 12.52 51.0423 12.168C51.4423 11.816 51.7903 11.436 52.0863 11.028C52.2863 10.748 52.4623 10.456 52.6143 10.152C52.7663 9.856 52.8863 9.628 52.9743 9.468C52.8303 9.548 52.6343 9.66 52.3863 9.804C52.1463 9.948 51.8783 10.108 51.5823 10.284C51.2943 10.46 51.0063 10.636 50.7183 10.812C50.4382 10.988 50.1862 11.148 49.9622 11.292C49.7303 11.444 49.5582 11.564 49.4462 11.652C49.1902 11.852 48.9902 12.04 48.8462 12.216C48.6942 12.4 48.6182 12.572 48.6182 12.732C48.6182 12.86 48.6582 12.964 48.7382 13.044C48.8182 13.132 48.9342 13.176 49.0862 13.176Z" fill="black"/>
</svg>
